<svg width="186" height="45" viewBox="0 0 186 45" fill="none" xmlns="http://www.w3.org/2000/svg">
<path d="M25.7576 25.8878C32.1541 15.2269 23.6253 6.69831 7.63411 7.76429C6.56801 23.7553 15.097 32.2837 25.7576 25.8878C25.7578 25.8877 25.7574 25.8879 25.7576 25.8878Z" fill="#5D8664"/>
<path d="M25.7576 25.8878C32.1541 15.2269 23.6253 6.69831 7.63411 7.76429C6.56801 23.7553 15.097 32.2837 25.7576 25.8878ZM25.7576 25.8878C25.7574 25.8879 25.7578 25.8877 25.7576 25.8878ZM25.7576 25.8878L28.5143 28.6455M25.7576 25.8878L19.9856 20.1168" stroke="#0D0D0D" stroke-width="2.89474" stroke-linecap="round" stroke-linejoin="round"/>
<path d="M45.7754 28.9136C44.7222 28.9136 43.7493 28.7083 42.8568 28.2977C41.9821 27.8693 41.2859 27.2624 40.7682 26.477L41.1163 25.7808V28.5923H37.8228V8.32261H41.3305V16.9178L40.795 16.1949C41.2948 15.4094 41.9731 14.8025 42.83 14.3741C43.6868 13.9278 44.6775 13.7047 45.8022 13.7047C47.1767 13.7047 48.4173 14.0438 49.5241 14.7222C50.6308 15.4005 51.5055 16.3109 52.1481 17.4533C52.8086 18.5958 53.1389 19.8811 53.1389 21.3091C53.1389 22.7193 52.8175 24.0046 52.1749 25.1649C51.5323 26.3252 50.6576 27.2445 49.5508 27.9229C48.4441 28.5834 47.1856 28.9136 45.7754 28.9136ZM45.3737 25.7004C46.177 25.7004 46.8911 25.513 47.5158 25.1381C48.1406 24.7633 48.6226 24.2456 48.9618 23.5851C49.3188 22.9246 49.4973 22.166 49.4973 21.3091C49.4973 20.4523 49.3188 19.7025 48.9618 19.0599C48.6226 18.3994 48.1406 17.8818 47.5158 17.5069C46.8911 17.1142 46.177 16.9178 45.3737 16.9178C44.6061 16.9178 43.91 17.1052 43.2852 17.4801C42.6782 17.855 42.1963 18.3816 41.8393 19.0599C41.5001 19.7204 41.3305 20.4701 41.3305 21.3091C41.3305 22.166 41.5001 22.9246 41.8393 23.5851C42.1963 24.2456 42.6782 24.7633 43.2852 25.1381C43.91 25.513 44.6061 25.7004 45.3737 25.7004ZM55.8131 28.5923V14.026H59.1066V17.2659L58.8389 16.7839C59.178 15.695 59.7046 14.9364 60.4187 14.5079C61.1506 14.0795 62.0253 13.8653 63.0428 13.8653H63.8996V16.9714H62.6411C61.6415 16.9714 60.8382 17.2838 60.2312 17.9085C59.6243 18.5155 59.3208 19.3723 59.3208 20.4791V28.5923H55.8131ZM70.2462 28.9136C69.2287 28.9136 68.3451 28.744 67.5954 28.4049C66.8456 28.0657 66.2655 27.5837 65.8549 26.9589C65.4443 26.3163 65.239 25.5755 65.239 24.7365C65.239 23.9332 65.4175 23.2192 65.7746 22.5944C66.1316 21.9518 66.685 21.4162 67.4347 20.9878C68.1844 20.5594 69.1305 20.2559 70.273 20.0774L75.0392 19.3009V21.9785L70.9424 22.6747C70.2462 22.7997 69.7285 23.0228 69.3894 23.3441C69.0502 23.6654 68.8806 24.0849 68.8806 24.6026C68.8806 25.1024 69.068 25.5041 69.4429 25.8075C69.8356 26.0932 70.3176 26.236 70.8888 26.236C71.6207 26.236 72.2634 26.0842 72.8167 25.7808C73.388 25.4595 73.8253 25.0221 74.1288 24.4687C74.4501 23.9154 74.6107 23.3084 74.6107 22.6479V18.8993C74.6107 18.2745 74.3608 17.7568 73.861 17.3462C73.379 16.9178 72.7364 16.7036 71.9331 16.7036C71.1834 16.7036 70.514 16.9089 69.9249 17.3195C69.3537 17.7122 68.9342 18.2388 68.6664 18.8993L65.8013 17.5069C66.087 16.7393 66.5332 16.0788 67.1402 15.5254C67.7649 14.9542 68.4968 14.5079 69.3358 14.1866C70.1748 13.8653 71.0852 13.7047 72.067 13.7047C73.263 13.7047 74.3162 13.9278 75.2266 14.3741C76.137 14.8025 76.8421 15.4094 77.3419 16.1949C77.8596 16.9624 78.1184 17.8639 78.1184 18.8993V28.5923H74.7982V26.1021L75.5479 26.0485C75.173 26.6733 74.7268 27.1999 74.2091 27.6283C73.6914 28.0389 73.1023 28.3602 72.4419 28.5923C71.7814 28.8065 71.0495 28.9136 70.2462 28.9136ZM81.3605 28.5923V14.026H84.654V16.891L84.3862 16.3823C84.7254 15.5076 85.2787 14.8471 86.0463 14.4008C86.8318 13.9367 87.7422 13.7047 88.7775 13.7047C89.8486 13.7047 90.7947 13.9367 91.6158 14.4008C92.4548 14.865 93.1063 15.5165 93.5705 16.3555C94.0346 17.1766 94.2667 18.1317 94.2667 19.2206V28.5923H90.759V20.0506C90.759 19.408 90.634 18.8546 90.3841 18.3905C90.1342 17.9264 89.7861 17.5694 89.3398 17.3195C88.9114 17.0517 88.4026 16.9178 87.8136 16.9178C87.2423 16.9178 86.7336 17.0517 86.2873 17.3195C85.841 17.5694 85.4929 17.9264 85.243 18.3905C84.9931 18.8546 84.8682 19.408 84.8682 20.0506V28.5923H81.3605ZM104.248 28.9136C102.802 28.9136 101.499 28.5834 100.339 27.9229C99.1964 27.2445 98.2949 26.3341 97.6344 25.1917C96.9739 24.0314 96.6437 22.7283 96.6437 21.2824C96.6437 19.8364 96.9739 18.5422 97.6344 17.3998C98.2949 16.2573 99.1964 15.3559 100.339 14.6954C101.499 14.0349 102.802 13.7047 104.248 13.7047C105.284 13.7047 106.247 13.8921 107.14 14.267C108.033 14.624 108.8 15.1238 109.443 15.7664C110.103 16.3912 110.576 17.1409 110.862 18.0156L107.783 19.3545C107.515 18.6226 107.06 18.0335 106.417 17.5872C105.792 17.1409 105.069 16.9178 104.248 16.9178C103.481 16.9178 102.793 17.1052 102.186 17.4801C101.597 17.855 101.133 18.3727 100.794 19.0331C100.455 19.6936 100.285 20.4523 100.285 21.3091C100.285 22.166 100.455 22.9246 100.794 23.5851C101.133 24.2456 101.597 24.7633 102.186 25.1381C102.793 25.513 103.481 25.7004 104.248 25.7004C105.087 25.7004 105.819 25.4773 106.444 25.031C107.069 24.5848 107.515 23.9868 107.783 23.237L110.862 24.6294C110.576 25.4505 110.112 26.1913 109.47 26.8518C108.827 27.4945 108.059 28.0032 107.167 28.3781C106.274 28.7351 105.301 28.9136 104.248 28.9136ZM113.523 28.5923V8.32261H117.031V16.891L116.549 16.3823C116.888 15.5076 117.442 14.8471 118.209 14.4008C118.995 13.9367 119.905 13.7047 120.94 13.7047C122.012 13.7047 122.958 13.9367 123.779 14.4008C124.618 14.865 125.269 15.5165 125.733 16.3555C126.198 17.1766 126.43 18.1317 126.43 19.2206V28.5923H122.922V20.0506C122.922 19.408 122.797 18.8546 122.547 18.3905C122.297 17.9264 121.949 17.5694 121.503 17.3195C121.074 17.0517 120.566 16.9178 119.977 16.9178C119.405 16.9178 118.897 17.0517 118.45 17.3195C118.004 17.5694 117.656 17.9264 117.406 18.3905C117.156 18.8546 117.031 19.408 117.031 20.0506V28.5923H113.523ZM139.517 28.9136C138.053 28.9136 136.688 28.6548 135.42 28.1371C134.153 27.6194 133.046 26.8965 132.1 25.9682C131.154 25.04 130.413 23.9511 129.878 22.7015C129.36 21.4341 129.101 20.0685 129.101 18.6047C129.101 17.1231 129.36 15.7575 129.878 14.5079C130.395 13.2584 131.127 12.1695 132.073 11.2412C133.019 10.313 134.126 9.59895 135.394 9.09913C136.661 8.58145 138.036 8.32261 139.517 8.32261C140.999 8.32261 142.373 8.58145 143.641 9.09913C144.908 9.6168 146.015 10.3398 146.961 11.268C147.907 12.1784 148.639 13.2584 149.157 14.5079C149.692 15.7575 149.96 17.1231 149.96 18.6047C149.96 20.0685 149.692 21.4341 149.157 22.7015C148.621 23.9511 147.88 25.04 146.934 25.9682C145.988 26.8965 144.881 27.6194 143.614 28.1371C142.364 28.6548 140.999 28.9136 139.517 28.9136ZM139.517 25.5933C140.499 25.5933 141.4 25.4238 142.222 25.0846C143.043 24.7276 143.757 24.2367 144.364 23.6119C144.988 22.9871 145.462 22.2463 145.783 21.3895C146.122 20.5326 146.292 19.6044 146.292 18.6047C146.292 17.6051 146.122 16.6857 145.783 15.8468C145.462 14.9899 144.988 14.2491 144.364 13.6243C143.757 12.9817 143.043 12.4908 142.222 12.1516C141.4 11.8125 140.499 11.6429 139.517 11.6429C138.553 11.6429 137.661 11.8125 136.84 12.1516C136.018 12.4908 135.295 12.9817 134.671 13.6243C134.064 14.2491 133.591 14.9899 133.252 15.8468C132.912 16.6857 132.743 17.6051 132.743 18.6047C132.743 19.6044 132.912 20.5326 133.252 21.3895C133.591 22.2463 134.064 22.9871 134.671 23.6119C135.295 24.2367 136.018 24.7276 136.84 25.0846C137.661 25.4238 138.553 25.5933 139.517 25.5933ZM160.883 28.9136C159.348 28.9136 157.982 28.5923 156.786 27.9497C155.608 27.307 154.68 26.4234 154.001 25.2988C153.323 24.1742 152.984 22.8979 152.984 21.4698V8.64393H156.625V21.2824C156.625 22.1035 156.804 22.8443 157.161 23.5048C157.536 24.1653 158.044 24.6829 158.687 25.0578C159.33 25.4148 160.062 25.5933 160.883 25.5933C161.722 25.5933 162.454 25.4148 163.078 25.0578C163.721 24.6829 164.221 24.1653 164.578 23.5048C164.953 22.8443 165.14 22.1035 165.14 21.2824V8.64393H168.782V21.4698C168.782 22.8979 168.443 24.1742 167.764 25.2988C167.086 26.4234 166.149 27.307 164.953 27.9497C163.775 28.5923 162.418 28.9136 160.883 28.9136ZM175.952 28.5923V11.8571H170.784V8.64393H184.708V11.8571H179.62V28.5923H175.952Z" fill="black"/>
<path d="M106.597 44.2001C106.244 44.2001 105.917 44.1422 105.616 44.0264C105.315 43.9106 105.054 43.7485 104.834 43.5401C104.62 43.3374 104.464 43.0972 104.365 42.8193L105.425 42.4198C105.494 42.6398 105.63 42.8164 105.833 42.9496C106.041 43.0885 106.296 43.158 106.597 43.158C106.829 43.158 107.031 43.1146 107.205 43.0277C107.385 42.9409 107.524 42.8135 107.622 42.6456C107.72 42.4835 107.77 42.2867 107.77 42.0551V40.9782L107.987 41.2388C107.825 41.5224 107.608 41.7367 107.335 41.8814C107.063 42.0261 106.754 42.0985 106.406 42.0985C105.966 42.0985 105.573 41.9972 105.225 41.7946C104.878 41.5919 104.606 41.314 104.409 40.9609C104.212 40.6077 104.114 40.2111 104.114 39.7711C104.114 39.3253 104.212 38.9288 104.409 38.5814C104.606 38.234 104.875 37.9619 105.216 37.7651C105.558 37.5624 105.946 37.4611 106.38 37.4611C106.733 37.4611 107.043 37.5364 107.309 37.6869C107.581 37.8317 107.807 38.043 107.987 38.3209L107.83 38.6074V37.5653H108.907V42.0551C108.907 42.4661 108.806 42.8338 108.603 43.158C108.406 43.4822 108.134 43.7369 107.787 43.9222C107.445 44.1074 107.049 44.2001 106.597 44.2001ZM106.545 41.0477C106.788 41.0477 107 40.9956 107.179 40.8914C107.364 40.7814 107.509 40.6309 107.613 40.4398C107.718 40.2488 107.77 40.0288 107.77 39.7798C107.77 39.5367 107.715 39.3196 107.605 39.1285C107.5 38.9317 107.356 38.7782 107.17 38.6682C106.991 38.5582 106.783 38.5032 106.545 38.5032C106.308 38.5032 106.094 38.5582 105.903 38.6682C105.711 38.7782 105.561 38.9317 105.451 39.1285C105.347 39.3196 105.295 39.5367 105.295 39.7798C105.295 40.023 105.347 40.2401 105.451 40.4311C105.561 40.6222 105.709 40.7727 105.894 40.8827C106.085 40.9927 106.302 41.0477 106.545 41.0477ZM109.97 42.2896V37.5653H111.038V38.6161L110.951 38.4598C111.061 38.1067 111.232 37.8606 111.463 37.7217C111.701 37.5827 111.984 37.5132 112.314 37.5132H112.592V38.5206H112.184C111.86 38.5206 111.599 38.6219 111.403 38.8246C111.206 39.0214 111.107 39.2993 111.107 39.6582V42.2896H109.97ZM115.528 42.3938C115.065 42.3938 114.642 42.2867 114.26 42.0724C113.884 41.8582 113.583 41.5659 113.357 41.1953C113.137 40.8248 113.027 40.4022 113.027 39.9274C113.027 39.4527 113.137 39.0301 113.357 38.6596C113.583 38.289 113.884 37.9967 114.26 37.7824C114.636 37.5682 115.059 37.4611 115.528 37.4611C115.991 37.4611 116.411 37.5682 116.787 37.7824C117.163 37.9967 117.462 38.289 117.682 38.6596C117.907 39.0243 118.02 39.4469 118.02 39.9274C118.02 40.4022 117.907 40.8248 117.682 41.1953C117.456 41.5659 117.155 41.8582 116.778 42.0724C116.402 42.2867 115.985 42.3938 115.528 42.3938ZM115.528 41.3517C115.783 41.3517 116.005 41.2909 116.197 41.1693C116.393 41.0477 116.547 40.8798 116.657 40.6656C116.773 40.4456 116.83 40.1996 116.83 39.9274C116.83 39.6496 116.773 39.4064 116.657 39.198C116.547 38.9838 116.393 38.8159 116.197 38.6943C116.005 38.5669 115.783 38.5032 115.528 38.5032C115.267 38.5032 115.039 38.5669 114.842 38.6943C114.645 38.8159 114.489 38.9838 114.373 39.198C114.263 39.4064 114.208 39.6496 114.208 39.9274C114.208 40.1996 114.263 40.4456 114.373 40.6656C114.489 40.8798 114.645 41.0477 114.842 41.1693C115.039 41.2909 115.267 41.3517 115.528 41.3517ZM119.988 42.2896L118.364 37.5653H119.562L120.752 41.1519L120.335 41.1432L121.603 37.5653H122.61L123.87 41.1432L123.453 41.1519L124.643 37.5653H125.841L124.217 42.2896H123.201L121.916 38.5467H122.298L120.995 42.2896H119.988ZM128.581 44.2001C128.454 44.2001 128.329 44.1885 128.208 44.1653C128.086 44.148 127.976 44.1132 127.878 44.0611V43.1146C127.953 43.1319 128.043 43.1493 128.147 43.1667C128.257 43.184 128.358 43.1927 128.451 43.1927C128.712 43.1927 128.9 43.1319 129.015 43.0103C129.137 42.8946 129.244 42.7382 129.337 42.5414L129.649 41.8119L129.632 42.7672L127.574 37.5653H128.798L130.24 41.4038H129.806L131.239 37.5653H132.472L130.414 42.7672C130.292 43.0682 130.144 43.3259 129.971 43.5401C129.797 43.7543 129.594 43.9164 129.363 44.0264C129.137 44.1422 128.877 44.2001 128.581 44.2001ZM135.322 42.3938C134.859 42.3938 134.436 42.2867 134.054 42.0724C133.678 41.8582 133.376 41.5659 133.151 41.1953C132.931 40.8248 132.821 40.4022 132.821 39.9274C132.821 39.4527 132.931 39.0301 133.151 38.6596C133.376 38.289 133.678 37.9967 134.054 37.7824C134.43 37.5682 134.853 37.4611 135.322 37.4611C135.785 37.4611 136.205 37.5682 136.581 37.7824C136.957 37.9967 137.255 38.289 137.475 38.6596C137.701 39.0243 137.814 39.4469 137.814 39.9274C137.814 40.4022 137.701 40.8248 137.475 41.1953C137.25 41.5659 136.949 41.8582 136.572 42.0724C136.196 42.2867 135.779 42.3938 135.322 42.3938ZM135.322 41.3517C135.576 41.3517 135.799 41.2909 135.99 41.1693C136.187 41.0477 136.341 40.8798 136.451 40.6656C136.566 40.4456 136.624 40.1996 136.624 39.9274C136.624 39.6496 136.566 39.4064 136.451 39.198C136.341 38.9838 136.187 38.8159 135.99 38.6943C135.799 38.5669 135.576 38.5032 135.322 38.5032C135.061 38.5032 134.833 38.5669 134.636 38.6943C134.439 38.8159 134.283 38.9838 134.167 39.198C134.057 39.4064 134.002 39.6496 134.002 39.9274C134.002 40.1996 134.057 40.4456 134.167 40.6656C134.283 40.8798 134.439 41.0477 134.636 41.1693C134.833 41.2909 135.061 41.3517 135.322 41.3517ZM140.362 42.3938C139.997 42.3938 139.678 42.3127 139.406 42.1506C139.14 41.9885 138.934 41.7627 138.79 41.4732C138.651 41.1838 138.581 40.8451 138.581 40.4572V37.5653H139.719V40.3617C139.719 40.5585 139.757 40.7322 139.832 40.8827C139.913 41.0274 140.026 41.1432 140.17 41.2301C140.321 41.3111 140.489 41.3517 140.674 41.3517C140.859 41.3517 141.024 41.3111 141.169 41.2301C141.314 41.1432 141.427 41.0246 141.508 40.874C141.589 40.7235 141.629 40.544 141.629 40.3356V37.5653H142.767V42.2896H141.69V41.3603L141.786 41.5253C141.676 41.8148 141.493 42.0319 141.239 42.1767C140.99 42.3214 140.697 42.3938 140.362 42.3938ZM143.825 42.2896V37.5653H144.893V38.6161L144.806 38.4598C144.916 38.1067 145.087 37.8606 145.318 37.7217C145.556 37.5827 145.839 37.5132 146.169 37.5132H146.447V38.5206H146.039C145.715 38.5206 145.454 38.6219 145.257 38.8246C145.061 39.0214 144.962 39.2993 144.962 39.6582V42.2896H143.825ZM148.616 42.2896V37.5653H149.684V38.4946L149.597 38.3296C149.707 38.0459 149.887 37.8317 150.136 37.6869C150.391 37.5364 150.686 37.4611 151.022 37.4611C151.369 37.4611 151.676 37.5364 151.942 37.6869C152.214 37.8374 152.426 38.0488 152.576 38.3209C152.727 38.5872 152.802 38.8969 152.802 39.2501V42.2896H151.664V39.5193C151.664 39.3109 151.624 39.1314 151.543 38.9809C151.462 38.8303 151.349 38.7146 151.204 38.6335C151.065 38.5467 150.9 38.5032 150.709 38.5032C150.524 38.5032 150.359 38.5467 150.214 38.6335C150.069 38.7146 149.956 38.8303 149.875 38.9809C149.794 39.1314 149.754 39.3109 149.754 39.5193V42.2896H148.616ZM156.004 42.3938C155.518 42.3938 155.093 42.2838 154.728 42.0638C154.363 41.8438 154.079 41.5456 153.877 41.1693C153.674 40.793 153.573 40.3761 153.573 39.9188C153.573 39.444 153.674 39.0243 153.877 38.6596C154.085 38.289 154.366 37.9967 154.719 37.7824C155.078 37.5682 155.478 37.4611 155.918 37.4611C156.288 37.4611 156.612 37.5219 156.89 37.6435C157.174 37.7651 157.414 37.933 157.611 38.1472C157.808 38.3614 157.958 38.6074 158.063 38.8853C158.167 39.1574 158.219 39.4527 158.219 39.7711C158.219 39.8522 158.213 39.9361 158.202 40.023C158.196 40.1098 158.181 40.1851 158.158 40.2488H154.511V39.3803H157.516L156.977 39.7885C157.029 39.5222 157.015 39.2848 156.934 39.0764C156.858 38.868 156.731 38.703 156.552 38.5814C156.378 38.4598 156.167 38.399 155.918 38.399C155.68 38.399 155.469 38.4598 155.284 38.5814C155.098 38.6972 154.957 38.8709 154.858 39.1024C154.766 39.3282 154.731 39.6032 154.754 39.9274C154.731 40.2169 154.768 40.4746 154.867 40.7003C154.971 40.9203 155.122 41.0911 155.318 41.2127C155.521 41.3343 155.753 41.3951 156.013 41.3951C156.274 41.3951 156.494 41.3401 156.673 41.2301C156.858 41.1201 157.003 40.9724 157.107 40.7872L158.028 41.2388C157.935 41.4646 157.791 41.6643 157.594 41.838C157.397 42.0117 157.162 42.1477 156.89 42.2461C156.624 42.3446 156.329 42.3938 156.004 42.3938ZM161.235 42.3417C160.702 42.3417 160.288 42.1969 159.993 41.9074C159.704 41.6122 159.559 41.1982 159.559 40.6656V38.5814H158.743V37.5653H158.829C159.061 37.5653 159.241 37.5046 159.368 37.383C159.495 37.2614 159.559 37.0848 159.559 36.8532V36.4885H160.697V37.5653H161.782V38.5814H160.697V40.6048C160.697 40.7611 160.723 40.8943 160.775 41.0043C160.833 41.1143 160.919 41.1982 161.035 41.2561C161.157 41.314 161.31 41.343 161.496 41.343C161.536 41.343 161.582 41.3401 161.634 41.3343C161.692 41.3285 161.747 41.3227 161.799 41.3169V42.2896C161.718 42.3011 161.626 42.3127 161.522 42.3243C161.417 42.3359 161.322 42.3417 161.235 42.3417ZM163.858 42.2896L162.234 37.5653H163.433L164.623 41.1519L164.206 41.1432L165.474 37.5653H166.481L167.74 41.1432L167.323 41.1519L168.513 37.5653H169.712L168.088 42.2896H167.072L165.786 38.5467H166.168L164.866 42.2896H163.858ZM172.56 42.3938C172.097 42.3938 171.675 42.2867 171.292 42.0724C170.916 41.8582 170.615 41.5659 170.389 41.1953C170.169 40.8248 170.059 40.4022 170.059 39.9274C170.059 39.4527 170.169 39.0301 170.389 38.6596C170.615 38.289 170.916 37.9967 171.292 37.7824C171.669 37.5682 172.091 37.4611 172.56 37.4611C173.024 37.4611 173.443 37.5682 173.82 37.7824C174.196 37.9967 174.494 38.289 174.714 38.6596C174.94 39.0243 175.053 39.4469 175.053 39.9274C175.053 40.4022 174.94 40.8248 174.714 41.1953C174.488 41.5659 174.187 41.8582 173.811 42.0724C173.435 42.2867 173.018 42.3938 172.56 42.3938ZM172.56 41.3517C172.815 41.3517 173.038 41.2909 173.229 41.1693C173.426 41.0477 173.579 40.8798 173.689 40.6656C173.805 40.4456 173.863 40.1996 173.863 39.9274C173.863 39.6496 173.805 39.4064 173.689 39.198C173.579 38.9838 173.426 38.8159 173.229 38.6943C173.038 38.5669 172.815 38.5032 172.56 38.5032C172.3 38.5032 172.071 38.5669 171.874 38.6943C171.677 38.8159 171.521 38.9838 171.405 39.198C171.295 39.4064 171.24 39.6496 171.24 39.9274C171.24 40.1996 171.295 40.4456 171.405 40.6656C171.521 40.8798 171.677 41.0477 171.874 41.1693C172.071 41.2909 172.3 41.3517 172.56 41.3517ZM175.915 42.2896V37.5653H176.984V38.6161L176.897 38.4598C177.007 38.1067 177.178 37.8606 177.409 37.7217C177.647 37.5827 177.93 37.5132 178.26 37.5132H178.538V38.5206H178.13C177.806 38.5206 177.545 38.6219 177.348 38.8246C177.152 39.0214 177.053 39.2993 177.053 39.6582V42.2896H175.915ZM179.164 42.2896V35.7156H180.301V40.023L179.867 39.8927L182.09 37.5653H183.506L181.76 39.4672L183.54 42.2896H182.238L180.692 39.8406L181.369 39.7017L179.945 41.2301L180.301 40.5353V42.2896H179.164Z" fill="#0D0D0D"/>
</svg>
