<svg width="692" height="481" viewBox="0 0 692 481" fill="none" xmlns="http://www.w3.org/2000/svg">
<g clip-path="url(#clip0_1821_4040)">
<rect y="0.5" width="692" height="480" rx="13.3333" fill="url(#paint0_linear_1821_4040)"/>
<rect y="0.5" width="692" height="480" rx="13.3333" fill="url(#paint1_radial_1821_4040)" fill-opacity="0.2"/>
<path d="M347.586 378.967C331.961 379.143 308.29 386.36 300.889 389.881C304.12 383.72 315.515 363.264 315.515 335.662C317.571 321.462 314.035 287.146 283.444 263.487C268.172 250.695 239.391 232.681 234.457 231.097C231.109 229.688 227.984 224.977 237.628 206.276C241.27 200.701 250.139 190.714 256.483 195.361C273.488 203.342 307.497 220.781 307.497 226.696C310.652 200.53 332.355 192.024 344.061 191.136C376.767 191.136 384.943 211.791 384.943 222.119C390.993 212.73 409.507 190.397 435.164 176.173C436.88 175.47 439.471 174.913 442.389 175.106C447.262 175.428 453.047 177.84 457.191 185.151C460.591 190.867 465.836 202.428 461.962 206.452C461.62 206.807 461.207 207.103 460.715 207.332C432.168 223.292 375.075 268.346 375.075 320.875C375.486 342.351 379.304 375.974 394.635 384.072C390.23 383.604 385.648 379.671 347.586 378.967Z" fill="#663C16"/>
<ellipse cx="346.531" cy="228.455" rx="37.7098" ry="38.0238" fill="#E7C59A"/>
<ellipse cx="8.27939" cy="19.6631" rx="8.27939" ry="19.6631" transform="matrix(-0.826035 -0.563619 -0.564397 0.825504 261.875 200.968)" fill="#E7C59A"/>
<path d="M377.236 174.021C399.74 182.961 413.458 163.906 406.387 133.528C375.31 136.498 361.593 155.553 377.236 174.021C377.237 174.021 377.236 174.021 377.236 174.021Z" fill="#5D8664"/>
<path d="M377.236 174.021C399.74 182.961 413.458 163.906 406.387 133.528C375.31 136.498 361.593 155.553 377.236 174.021ZM377.236 174.021C377.236 174.021 377.237 174.021 377.236 174.021ZM377.236 174.021L372.8 180.18M377.236 174.021L386.518 161.125" stroke="#0D0D0D" stroke-width="5.63701" stroke-linecap="round" stroke-linejoin="round"/>
<path d="M304.203 182.454C318.483 162.913 303.433 144.889 272.223 144.152C267.349 174.958 282.399 192.981 304.203 182.454C304.204 182.454 304.203 182.454 304.203 182.454Z" fill="#5D8664"/>
<path d="M304.203 182.454C318.483 162.913 303.433 144.889 272.223 144.152C267.349 174.958 282.399 192.981 304.203 182.454ZM304.203 182.454C304.203 182.454 304.204 182.454 304.203 182.454ZM304.203 182.454L309.068 188.282M304.203 182.454L294.018 170.257" stroke="#0D0D0D" stroke-width="5.63701" stroke-linecap="round" stroke-linejoin="round"/>
<g clip-path="url(#clip1_1821_4040)">
<path d="M341.688 162.081C364.642 154.367 362.774 130.97 337.72 112.362C315.933 134.7 317.801 158.097 341.688 162.081C341.688 162.082 341.687 162.081 341.688 162.081Z" fill="#5D8664"/>
<path d="M341.688 162.082C364.642 154.367 362.774 130.97 337.72 112.362C315.933 134.7 317.801 158.097 341.688 162.082ZM341.688 162.082C341.687 162.081 341.688 162.082 341.688 162.082ZM341.688 162.082L342.29 169.646M341.688 162.082L340.423 146.248" stroke="#0D0D0D" stroke-width="5.63701" stroke-linecap="round" stroke-linejoin="round"/>
</g>
<g clip-path="url(#clip2_1821_4040)">
<path d="M341.191 88.3481C364.145 80.6335 362.278 57.2363 337.224 38.629C315.437 60.9665 317.305 84.3635 341.191 88.3481C341.192 88.3482 341.191 88.348 341.191 88.3481Z" fill="#5D8664"/>
<path d="M341.191 88.3481C364.145 80.6335 362.278 57.2363 337.224 38.629C315.437 60.9665 317.305 84.3635 341.191 88.3481ZM341.191 88.3481C341.191 88.348 341.192 88.3482 341.191 88.3481ZM341.191 88.3481L341.794 95.9122M341.191 88.3481L339.926 72.5149" stroke="#0D0D0D" stroke-width="5.63701" stroke-linecap="round" stroke-linejoin="round"/>
</g>
<ellipse cx="8.27939" cy="16.5527" rx="8.27939" ry="16.5527" transform="matrix(0.826035 -0.563619 0.564397 0.825504 434.637 181.457)" fill="#E7C59A"/>
<path d="M300.889 389.881L298.393 388.572C297.83 389.646 298.017 390.961 298.858 391.835C299.699 392.709 301.005 392.947 302.1 392.426L300.889 389.881ZM347.586 378.967L347.638 376.149L347.596 376.148L347.554 376.149L347.586 378.967ZM394.635 384.072L394.337 386.875C395.681 387.017 396.937 386.186 397.331 384.894C397.725 383.601 397.146 382.211 395.951 381.58L394.635 384.072ZM375.075 320.875H372.257V320.902L372.257 320.929L375.075 320.875ZM460.715 207.332L459.527 204.776L459.432 204.82L459.34 204.872L460.715 207.332ZM457.191 185.151L454.739 186.541L454.753 186.567L454.769 186.592L457.191 185.151ZM435.164 176.173L434.095 173.565L433.942 173.628L433.798 173.708L435.164 176.173ZM350.934 267.36L351.269 270.159L351.353 270.149L351.436 270.133L350.934 267.36ZM307.233 237.258L304.42 237.43L304.428 237.564L304.449 237.696L307.233 237.258ZM344.061 191.136V188.318H343.955L343.848 188.326L344.061 191.136ZM237.628 206.276L235.269 204.734L235.19 204.855L235.123 204.984L237.628 206.276ZM237.805 230.745L238.415 233.496L238.727 233.427L239.015 233.29L237.805 230.745ZM252.606 212.261L250.181 210.825L250.112 210.942L250.054 211.066L252.606 212.261ZM234.457 231.097L233.364 233.695L233.477 233.742L233.595 233.78L234.457 231.097ZM283.444 263.487L281.634 265.648L281.676 265.683L281.72 265.717L283.444 263.487ZM315.515 335.662L312.725 335.258L312.696 335.459V335.662H315.515ZM442.389 175.106L442.575 172.294L442.389 175.106ZM446.97 197.298L444.853 199.158L444.868 199.175L444.883 199.191L446.97 197.298ZM461.962 206.452L463.992 208.407L461.962 206.452ZM302.1 392.426C305.564 390.778 313.134 388.147 321.857 385.899C330.574 383.653 340.142 381.869 347.618 381.785L347.554 376.149C339.406 376.24 329.325 378.154 320.45 380.44C311.582 382.726 303.615 385.463 299.678 387.336L302.1 392.426ZM347.534 381.785C366.481 382.135 376.985 383.288 383.246 384.384C386.362 384.93 388.45 385.465 390.04 385.896C391.545 386.304 392.95 386.727 394.337 386.875L394.933 381.269C394.117 381.182 393.298 380.939 391.515 380.455C389.818 379.995 387.555 379.416 384.218 378.832C377.571 377.668 366.753 376.502 347.638 376.149L347.534 381.785ZM395.951 381.58C392.785 379.907 390.014 376.803 387.644 372.453C385.282 368.118 383.427 362.741 382 356.829C379.145 345.005 378.097 331.457 377.893 320.821L372.257 320.929C372.465 331.77 373.531 345.771 376.52 358.152C378.015 364.342 380.015 370.232 382.694 375.15C385.365 380.053 388.819 384.188 393.319 386.564L395.951 381.58ZM377.894 320.875C377.894 295.621 391.644 271.877 409.285 252.276C426.889 232.715 448.043 217.646 462.091 209.792L459.34 204.872C444.84 212.978 423.174 228.416 405.095 248.505C387.053 268.553 372.257 293.6 372.257 320.875H377.894ZM433.798 173.708C407.639 188.21 388.809 210.916 382.574 220.592L387.312 223.646C393.177 214.545 411.375 192.584 436.531 178.638L433.798 173.708ZM382.125 222.119C382.125 251.624 360.859 262.698 350.431 264.587L351.436 270.133C363.682 267.915 387.762 255.142 387.762 222.119H382.125ZM350.599 264.562C336.108 266.296 326.481 261.914 320.237 255.975C313.887 249.934 310.848 242.096 310.017 236.819L304.449 237.696C305.438 243.98 308.955 253.023 316.352 260.059C323.856 267.196 335.169 272.086 351.269 270.159L350.599 264.562ZM344.061 193.955C359.781 193.955 369.212 198.895 374.723 204.696C380.305 210.572 382.125 217.597 382.125 222.119H387.762C387.762 216.313 385.493 207.847 378.81 200.814C372.057 193.705 361.047 188.318 344.061 188.318V193.955ZM310.046 237.085C309.823 233.439 309.926 230.096 310.295 227.033L304.699 226.358C304.286 229.782 304.177 233.467 304.42 237.43L310.046 237.085ZM310.295 227.033C313.226 202.721 333.31 194.778 344.275 193.947L343.848 188.326C331.4 189.27 308.077 198.338 304.699 226.358L310.295 227.033ZM310.315 226.696C310.315 225.671 309.956 224.774 309.573 224.085C309.179 223.378 308.656 222.707 308.087 222.082C306.951 220.833 305.396 219.513 303.609 218.172C300.016 215.477 295.117 212.426 289.769 209.358C279.052 203.21 266.224 196.819 257.681 192.81L255.286 197.913C263.747 201.884 276.426 208.202 286.964 214.248C292.245 217.277 296.91 220.194 300.226 222.681C301.892 223.932 303.127 225.007 303.918 225.875C304.312 226.309 304.536 226.626 304.648 226.828C304.771 227.049 304.678 226.981 304.678 226.696H310.315ZM258.149 193.088C253.33 189.558 247.971 192.002 244.346 194.735C240.53 197.611 237.194 201.787 235.269 204.734L239.988 207.817C241.705 205.189 244.624 201.585 247.739 199.236C251.045 196.743 253.292 196.518 254.818 197.635L258.149 193.088ZM239.015 233.29C240.365 232.648 241.807 231.465 243.154 230.167C244.555 228.819 246.05 227.153 247.511 225.339C250.418 221.73 253.333 217.356 255.159 213.456L250.054 211.066C248.473 214.441 245.838 218.43 243.121 221.803C241.769 223.481 240.434 224.961 239.244 226.107C238.002 227.303 237.094 227.961 236.594 228.199L239.015 233.29ZM255.032 213.697C258.128 208.468 259.56 204.25 259.999 200.988C260.42 197.863 259.969 195.205 258.683 193.6L254.283 197.123C254.172 196.984 254.743 197.777 254.412 200.235C254.1 202.556 253.006 206.055 250.181 210.825L255.032 213.697ZM235.123 204.984C230.254 214.426 228.359 220.777 228.352 225.167C228.348 227.427 228.845 229.307 229.829 230.803C230.818 232.307 232.141 233.18 233.364 233.695L235.549 228.499C235.098 228.309 234.775 228.065 234.538 227.705C234.296 227.337 233.987 226.606 233.989 225.176C233.994 222.182 235.359 216.827 240.133 207.567L235.123 204.984ZM234.457 233.915C235.432 233.915 236.544 233.912 238.415 233.496L237.194 227.993C235.893 228.282 235.243 228.278 234.457 228.278V233.915ZM233.595 233.78C234.479 234.064 236.922 235.308 240.628 237.464C244.21 239.547 248.708 242.322 253.541 245.454C263.224 251.731 274.127 259.36 281.634 265.648L285.254 261.327C277.489 254.822 266.365 247.049 256.606 240.724C251.717 237.555 247.14 234.73 243.462 232.591C239.906 230.523 236.901 228.921 235.318 228.413L233.595 233.78ZM281.72 265.717C311.306 288.599 314.676 321.784 312.725 335.258L318.304 336.066C320.465 321.139 316.764 285.694 285.168 261.258L281.72 265.717ZM312.696 335.662C312.696 362.515 301.612 382.432 298.393 388.572L303.385 391.19C306.627 385.007 318.333 364.014 318.333 335.662H312.696ZM459.643 183.761C454.997 175.565 448.324 172.674 442.575 172.294L442.203 177.919C446.2 178.183 451.097 180.115 454.739 186.541L459.643 183.761ZM442.575 172.294C439.219 172.072 436.2 172.703 434.095 173.565L436.233 178.781C437.561 178.237 439.723 177.755 442.203 177.919L442.575 172.294ZM441.196 172.553C438.294 173.908 436.604 176.158 436.062 178.882C435.557 181.419 436.097 184.097 436.964 186.488C438.704 191.288 442.214 196.153 444.853 199.158L449.088 195.438C446.676 192.692 443.666 188.437 442.263 184.567C441.559 182.623 441.372 181.079 441.59 179.983C441.771 179.073 442.255 178.28 443.582 177.66L441.196 172.553ZM461.903 209.888C462.7 209.518 463.401 209.021 463.992 208.407L459.932 204.497C459.839 204.593 459.714 204.689 459.527 204.776L461.903 209.888ZM463.992 208.407C465.675 206.659 466.148 204.328 466.148 202.23C466.148 200.102 465.667 197.803 465 195.614C463.662 191.223 461.387 186.692 459.613 183.71L454.769 186.592C456.395 189.326 458.443 193.433 459.608 197.258C460.193 199.177 460.511 200.88 460.511 202.23C460.511 203.609 460.186 204.233 459.932 204.497L463.992 208.407ZM444.883 199.191C449.126 203.869 452.749 206.592 455.686 208.045C457.157 208.772 458.501 209.204 459.697 209.376C460.846 209.541 462.054 209.493 463.103 209.029L460.821 203.874C461.075 203.762 461.034 203.873 460.5 203.796C460.013 203.726 459.242 203.515 458.186 202.992C456.068 201.945 452.991 199.739 449.058 195.404L444.883 199.191Z" fill="black"/>
<path d="M362.037 239.722C362.742 236.729 365.914 236.211 367.92 236.211C371.786 236.211 372.61 237.962 373.139 239.018" stroke="black" stroke-width="3.52313" stroke-linecap="round"/>
<path d="M321.508 242.88C322.213 239.888 325.385 239.37 327.391 239.37C331.257 239.37 332.081 241.12 332.609 242.176" stroke="black" stroke-width="3.52313" stroke-linecap="round"/>
<path d="M341.595 242.844C342.237 246.747 346.102 246.857 347.954 246.425C351.645 245.818 352.29 243.143 352.151 241.881" stroke="black" stroke-width="3.52313" stroke-linecap="round"/>
<path d="M242.313 173.091C253.406 151.58 235.755 136.095 204.805 140.184C204.743 171.372 222.395 186.857 242.313 173.091C242.314 173.09 242.313 173.091 242.313 173.091Z" fill="#5D8664"/>
<path d="M242.313 173.091C253.406 151.58 235.755 136.095 204.805 140.184C204.743 171.372 222.395 186.857 242.313 173.091ZM242.313 173.091C242.313 173.091 242.314 173.09 242.313 173.091ZM242.313 173.091L248.019 178.098M242.313 173.091L230.367 162.612" stroke="#0D0D0D" stroke-width="5.63701" stroke-linecap="round" stroke-linejoin="round"/>
<path d="M294.054 121.467C310.222 103.457 297.056 84.0141 266.076 80.1505C258.137 110.312 271.304 129.754 294.054 121.467C294.055 121.466 294.054 121.467 294.054 121.467Z" fill="#5D8664"/>
<path d="M294.054 121.467C310.222 103.457 297.056 84.0141 266.076 80.1505C258.137 110.312 271.304 129.754 294.054 121.467ZM294.054 121.467C294.054 121.467 294.055 121.466 294.054 121.467ZM294.054 121.467L298.309 127.753M294.054 121.467L285.143 108.31" stroke="#0D0D0D" stroke-width="5.63701" stroke-linecap="round" stroke-linejoin="round"/>
<path d="M379.505 117.467C363.337 99.4568 376.503 80.0141 407.482 76.1505C415.421 106.312 402.255 125.754 379.505 117.467C379.504 117.466 379.505 117.467 379.505 117.467Z" fill="#5D8664"/>
<path d="M379.505 117.467C363.337 99.4568 376.503 80.0141 407.482 76.1505C415.421 106.312 402.255 125.754 379.505 117.467ZM379.505 117.467C379.505 117.467 379.504 117.466 379.505 117.467ZM379.505 117.467L375.249 123.753M379.505 117.467L388.415 104.31" stroke="#0D0D0D" stroke-width="5.63701" stroke-linecap="round" stroke-linejoin="round"/>
<path d="M434.484 156.036C421.853 135.391 438.328 118.66 469.495 120.482C471.829 151.583 455.353 168.313 434.484 156.036C434.484 156.035 434.484 156.036 434.484 156.036Z" fill="#5D8664"/>
<path d="M434.484 156.036C421.853 135.391 438.328 118.66 469.495 120.482C471.829 151.583 455.353 168.313 434.484 156.036ZM434.484 156.036C434.484 156.036 434.484 156.035 434.484 156.036ZM434.484 156.036L429.159 161.445M434.484 156.036L445.634 144.714" stroke="#0D0D0D" stroke-width="5.63701" stroke-linecap="round" stroke-linejoin="round"/>
<path d="M480.714 183.748C475.644 160.082 496.736 149.762 525.534 161.817C517.422 191.932 496.33 202.252 480.714 183.748C480.714 183.747 480.714 183.748 480.714 183.748Z" fill="#5D8664"/>
<path d="M480.714 183.748C475.644 160.082 496.736 149.762 525.534 161.817C517.422 191.932 496.33 202.252 480.714 183.748ZM480.714 183.748C480.714 183.748 480.714 183.747 480.714 183.748ZM480.714 183.748L473.896 187.085M480.714 183.748L494.988 176.765" stroke="#0D0D0D" stroke-width="5.63701" stroke-linecap="round" stroke-linejoin="round"/>
<g clip-path="url(#clip3_1821_4040)">
<path d="M213.698 208.616C216.156 184.539 194.065 176.581 166.753 191.705C178.102 220.755 200.194 228.712 213.698 208.616C213.698 208.615 213.698 208.616 213.698 208.616Z" fill="#5D8664"/>
<path d="M213.698 208.616C216.156 184.539 194.065 176.581 166.753 191.705C178.102 220.755 200.194 228.712 213.698 208.616ZM213.698 208.616C213.698 208.616 213.698 208.615 213.698 208.616ZM213.698 208.616L220.839 211.19M213.698 208.616L198.748 203.232" stroke="#0D0D0D" stroke-width="5.63701" stroke-linecap="round" stroke-linejoin="round"/>
</g>
<ellipse cx="347" cy="466" rx="387" ry="96.5" fill="#5D8664"/>
<path d="M29.9245 45.5V43H30.7845C31.4245 43 31.9312 42.82 32.3045 42.46C32.6912 42.0867 32.8845 41.5933 32.8845 40.98V30.6H35.6245V40.88C35.6245 41.8 35.4245 42.6067 35.0245 43.3C34.6379 43.9933 34.0779 44.5333 33.3445 44.92C32.6245 45.3067 31.7712 45.5 30.7845 45.5H29.9245ZM41.5161 45.74C40.7561 45.74 40.0961 45.6133 39.5361 45.36C38.9761 45.1067 38.5428 44.7467 38.2361 44.28C37.9294 43.8 37.7761 43.2467 37.7761 42.62C37.7761 42.02 37.9094 41.4867 38.1761 41.02C38.4428 40.54 38.8561 40.14 39.4161 39.82C39.9761 39.5 40.6828 39.2733 41.5361 39.14L45.0961 38.56V40.56L42.0361 41.08C41.5161 41.1733 41.1294 41.34 40.8761 41.58C40.6228 41.82 40.4961 42.1333 40.4961 42.52C40.4961 42.8933 40.6361 43.1933 40.9161 43.42C41.2094 43.6333 41.5694 43.74 41.9961 43.74C42.5428 43.74 43.0228 43.6267 43.4361 43.4C43.8628 43.16 44.1894 42.8333 44.4161 42.42C44.6561 42.0067 44.7761 41.5533 44.7761 41.06V38.26C44.7761 37.7933 44.5894 37.4067 44.2161 37.1C43.8561 36.78 43.3761 36.62 42.7761 36.62C42.2161 36.62 41.7161 36.7733 41.2761 37.08C40.8494 37.3733 40.5361 37.7667 40.3361 38.26L38.1961 37.22C38.4094 36.6467 38.7428 36.1533 39.1961 35.74C39.6628 35.3133 40.2094 34.98 40.8361 34.74C41.4628 34.5 42.1428 34.38 42.8761 34.38C43.7694 34.38 44.5561 34.5467 45.2361 34.88C45.9161 35.2 46.4428 35.6533 46.8161 36.24C47.2028 36.8133 47.3961 37.4867 47.3961 38.26V45.5H44.9161V43.64L45.4761 43.6C45.1961 44.0667 44.8628 44.46 44.4761 44.78C44.0894 45.0867 43.6494 45.3267 43.1561 45.5C42.6628 45.66 42.1161 45.74 41.5161 45.74ZM49.8177 45.5V34.62H52.2777V36.76L52.0777 36.38C52.331 35.7267 52.7443 35.2333 53.3177 34.9C53.9043 34.5533 54.5843 34.38 55.3577 34.38C56.1577 34.38 56.8643 34.5533 57.4777 34.9C58.1043 35.2467 58.591 35.7333 58.9377 36.36C59.2843 36.9733 59.4577 37.6867 59.4577 38.5V45.5H56.8377V39.12C56.8377 38.64 56.7443 38.2267 56.5577 37.88C56.371 37.5333 56.111 37.2667 55.7777 37.08C55.4577 36.88 55.0777 36.78 54.6377 36.78C54.211 36.78 53.831 36.88 53.4977 37.08C53.1643 37.2667 52.9043 37.5333 52.7177 37.88C52.531 38.2267 52.4377 38.64 52.4377 39.12V45.5H49.8177ZM66.8331 45.74C65.7131 45.74 64.7331 45.4867 63.8931 44.98C63.0531 44.4733 62.3998 43.7867 61.9331 42.92C61.4665 42.0533 61.2331 41.0933 61.2331 40.04C61.2331 38.9467 61.4665 37.98 61.9331 37.14C62.4131 36.2867 63.0598 35.6133 63.8731 35.12C64.6998 34.6267 65.6198 34.38 66.6331 34.38C67.4865 34.38 68.2331 34.52 68.8731 34.8C69.5265 35.08 70.0798 35.4667 70.5331 35.96C70.9865 36.4533 71.3331 37.02 71.5731 37.66C71.8131 38.2867 71.9331 38.9667 71.9331 39.7C71.9331 39.8867 71.9198 40.08 71.8931 40.28C71.8798 40.48 71.8465 40.6533 71.7931 40.8H63.3931V38.8H70.3131L69.0731 39.74C69.1931 39.1267 69.1598 38.58 68.9731 38.1C68.7998 37.62 68.5065 37.24 68.0931 36.96C67.6931 36.68 67.2065 36.54 66.6331 36.54C66.0865 36.54 65.5998 36.68 65.1731 36.96C64.7465 37.2267 64.4198 37.6267 64.1931 38.16C63.9798 38.68 63.8998 39.3133 63.9531 40.06C63.8998 40.7267 63.9865 41.32 64.2131 41.84C64.4531 42.3467 64.7998 42.74 65.2531 43.02C65.7198 43.3 66.2531 43.44 66.8531 43.44C67.4531 43.44 67.9598 43.3133 68.3731 43.06C68.7998 42.8067 69.1331 42.4667 69.3731 42.04L71.4931 43.08C71.2798 43.6 70.9465 44.06 70.4931 44.46C70.0398 44.86 69.4998 45.1733 68.8731 45.4C68.2598 45.6267 67.5798 45.74 66.8331 45.74ZM74.7592 36.32V35.02C75.1992 34.9133 75.5526 34.72 75.8192 34.44C76.0992 34.1467 76.2726 33.8 76.3392 33.4H75.1592V30.6H77.7992V32.32C77.7992 33.4 77.5392 34.2867 77.0192 34.98C76.5126 35.66 75.7592 36.1067 74.7592 36.32ZM85.2077 45.74C84.0477 45.74 83.0343 45.4667 82.1677 44.92C81.3143 44.36 80.7277 43.6067 80.4077 42.66L82.3677 41.72C82.6477 42.3333 83.0343 42.8133 83.5277 43.16C84.0343 43.5067 84.5943 43.68 85.2077 43.68C85.6877 43.68 86.0677 43.5733 86.3477 43.36C86.6277 43.1467 86.7677 42.8667 86.7677 42.52C86.7677 42.3067 86.7077 42.1333 86.5877 42C86.481 41.8533 86.3277 41.7333 86.1277 41.64C85.941 41.5333 85.7343 41.4467 85.5077 41.38L83.7277 40.88C82.8077 40.6133 82.1077 40.2067 81.6277 39.66C81.161 39.1133 80.9277 38.4667 80.9277 37.72C80.9277 37.0533 81.0943 36.4733 81.4277 35.98C81.7743 35.4733 82.2477 35.08 82.8477 34.8C83.461 34.52 84.161 34.38 84.9477 34.38C85.9743 34.38 86.881 34.6267 87.6677 35.12C88.4543 35.6133 89.0143 36.3067 89.3477 37.2L87.3477 38.14C87.161 37.6467 86.8477 37.2533 86.4077 36.96C85.9677 36.6667 85.4743 36.52 84.9277 36.52C84.4877 36.52 84.141 36.62 83.8877 36.82C83.6343 37.02 83.5077 37.28 83.5077 37.6C83.5077 37.8 83.561 37.9733 83.6677 38.12C83.7743 38.2667 83.921 38.3867 84.1077 38.48C84.3077 38.5733 84.5343 38.66 84.7877 38.74L86.5277 39.26C87.421 39.5267 88.1077 39.9267 88.5877 40.46C89.081 40.9933 89.3277 41.6467 89.3277 42.42C89.3277 43.0733 89.1543 43.6533 88.8077 44.16C88.461 44.6533 87.981 45.04 87.3677 45.32C86.7543 45.6 86.0343 45.74 85.2077 45.74ZM97.7558 45.5V33H93.8958V30.6H104.296V33H100.496V45.5H97.7558ZM104.544 45.5V34.62H107.004V37.04L106.804 36.68C107.058 35.8667 107.451 35.3 107.984 34.98C108.531 34.66 109.184 34.5 109.944 34.5H110.584V36.82H109.644C108.898 36.82 108.298 37.0533 107.844 37.52C107.391 37.9733 107.164 38.6133 107.164 39.44V45.5H104.544ZM117.185 45.74C116.065 45.74 115.085 45.4867 114.245 44.98C113.405 44.4733 112.751 43.7867 112.285 42.92C111.818 42.0533 111.585 41.0933 111.585 40.04C111.585 38.9467 111.818 37.98 112.285 37.14C112.765 36.2867 113.411 35.6133 114.225 35.12C115.051 34.6267 115.971 34.38 116.985 34.38C117.838 34.38 118.585 34.52 119.225 34.8C119.878 35.08 120.431 35.4667 120.885 35.96C121.338 36.4533 121.685 37.02 121.925 37.66C122.165 38.2867 122.285 38.9667 122.285 39.7C122.285 39.8867 122.271 40.08 122.245 40.28C122.231 40.48 122.198 40.6533 122.145 40.8H113.745V38.8H120.665L119.425 39.74C119.545 39.1267 119.511 38.58 119.325 38.1C119.151 37.62 118.858 37.24 118.445 36.96C118.045 36.68 117.558 36.54 116.985 36.54C116.438 36.54 115.951 36.68 115.525 36.96C115.098 37.2267 114.771 37.6267 114.545 38.16C114.331 38.68 114.251 39.3133 114.305 40.06C114.251 40.7267 114.338 41.32 114.565 41.84C114.805 42.3467 115.151 42.74 115.605 43.02C116.071 43.3 116.605 43.44 117.205 43.44C117.805 43.44 118.311 43.3133 118.725 43.06C119.151 42.8067 119.485 42.4667 119.725 42.04L121.845 43.08C121.631 43.6 121.298 44.06 120.845 44.46C120.391 44.86 119.851 45.1733 119.225 45.4C118.611 45.6267 117.931 45.74 117.185 45.74ZM129.431 45.74C128.311 45.74 127.331 45.4867 126.491 44.98C125.651 44.4733 124.997 43.7867 124.531 42.92C124.064 42.0533 123.831 41.0933 123.831 40.04C123.831 38.9467 124.064 37.98 124.531 37.14C125.011 36.2867 125.657 35.6133 126.471 35.12C127.297 34.6267 128.217 34.38 129.231 34.38C130.084 34.38 130.831 34.52 131.471 34.8C132.124 35.08 132.677 35.4667 133.131 35.96C133.584 36.4533 133.931 37.02 134.171 37.66C134.411 38.2867 134.531 38.9667 134.531 39.7C134.531 39.8867 134.517 40.08 134.491 40.28C134.477 40.48 134.444 40.6533 134.391 40.8H125.991V38.8H132.911L131.671 39.74C131.791 39.1267 131.757 38.58 131.571 38.1C131.397 37.62 131.104 37.24 130.691 36.96C130.291 36.68 129.804 36.54 129.231 36.54C128.684 36.54 128.197 36.68 127.771 36.96C127.344 37.2267 127.017 37.6267 126.791 38.16C126.577 38.68 126.497 39.3133 126.551 40.06C126.497 40.7267 126.584 41.32 126.811 41.84C127.051 42.3467 127.397 42.74 127.851 43.02C128.317 43.3 128.851 43.44 129.451 43.44C130.051 43.44 130.557 43.3133 130.971 43.06C131.397 42.8067 131.731 42.4667 131.971 42.04L134.091 43.08C133.877 43.6 133.544 44.06 133.091 44.46C132.637 44.86 132.097 45.1733 131.471 45.4C130.857 45.6267 130.177 45.74 129.431 45.74ZM137.757 45.5V42.7H140.397V45.5H137.757ZM137.757 37.42V34.62H140.397V37.42H137.757Z" fill="black"/>
<path d="M411.791 463.9C410.978 463.9 410.224 463.767 409.531 463.5C408.838 463.233 408.238 462.86 407.731 462.38C407.238 461.913 406.878 461.36 406.651 460.72L409.091 459.8C409.251 460.307 409.564 460.713 410.031 461.02C410.511 461.34 411.098 461.5 411.791 461.5C412.324 461.5 412.791 461.4 413.191 461.2C413.604 461 413.924 460.707 414.151 460.32C414.378 459.947 414.491 459.493 414.491 458.96V456.48L414.991 457.08C414.618 457.733 414.118 458.227 413.491 458.56C412.864 458.893 412.151 459.06 411.351 459.06C410.338 459.06 409.431 458.827 408.631 458.36C407.831 457.893 407.204 457.253 406.751 456.44C406.298 455.627 406.071 454.713 406.071 453.7C406.071 452.673 406.298 451.76 406.751 450.96C407.204 450.16 407.824 449.533 408.611 449.08C409.398 448.613 410.291 448.38 411.291 448.38C412.104 448.38 412.818 448.553 413.431 448.9C414.058 449.233 414.578 449.72 414.991 450.36L414.631 451.02V448.62H417.111V458.96C417.111 459.907 416.878 460.753 416.411 461.5C415.958 462.247 415.331 462.833 414.531 463.26C413.744 463.687 412.831 463.9 411.791 463.9ZM411.671 456.64C412.231 456.64 412.718 456.52 413.131 456.28C413.558 456.027 413.891 455.68 414.131 455.24C414.371 454.8 414.491 454.293 414.491 453.72C414.491 453.16 414.364 452.66 414.111 452.22C413.871 451.767 413.538 451.413 413.111 451.16C412.698 450.907 412.218 450.78 411.671 450.78C411.124 450.78 410.631 450.907 410.191 451.16C409.751 451.413 409.404 451.767 409.151 452.22C408.911 452.66 408.791 453.16 408.791 453.72C408.791 454.28 408.911 454.78 409.151 455.22C409.404 455.66 409.744 456.007 410.171 456.26C410.611 456.513 411.111 456.64 411.671 456.64ZM419.558 459.5V448.62H422.018V451.04L421.818 450.68C422.071 449.867 422.465 449.3 422.998 448.98C423.545 448.66 424.198 448.5 424.958 448.5H425.598V450.82H424.658C423.911 450.82 423.311 451.053 422.858 451.52C422.405 451.973 422.178 452.613 422.178 453.44V459.5H419.558ZM432.358 459.74C431.292 459.74 430.318 459.493 429.438 459C428.572 458.507 427.878 457.833 427.358 456.98C426.852 456.127 426.598 455.153 426.598 454.06C426.598 452.967 426.852 451.993 427.358 451.14C427.878 450.287 428.572 449.613 429.438 449.12C430.305 448.627 431.278 448.38 432.358 448.38C433.425 448.38 434.392 448.627 435.258 449.12C436.125 449.613 436.812 450.287 437.318 451.14C437.838 451.98 438.098 452.953 438.098 454.06C438.098 455.153 437.838 456.127 437.318 456.98C436.798 457.833 436.105 458.507 435.238 459C434.372 459.493 433.412 459.74 432.358 459.74ZM432.358 457.34C432.945 457.34 433.458 457.2 433.898 456.92C434.352 456.64 434.705 456.253 434.958 455.76C435.225 455.253 435.358 454.687 435.358 454.06C435.358 453.42 435.225 452.86 434.958 452.38C434.705 451.887 434.352 451.5 433.898 451.22C433.458 450.927 432.945 450.78 432.358 450.78C431.758 450.78 431.232 450.927 430.778 451.22C430.325 451.5 429.965 451.887 429.698 452.38C429.445 452.86 429.318 453.42 429.318 454.06C429.318 454.687 429.445 455.253 429.698 455.76C429.965 456.253 430.325 456.64 430.778 456.92C431.232 457.2 431.758 457.34 432.358 457.34ZM442.63 459.5L438.89 448.62H441.65L444.39 456.88L443.43 456.86L446.35 448.62H448.67L451.57 456.86L450.61 456.88L453.35 448.62H456.11L452.37 459.5H450.03L447.07 450.88H447.95L444.95 459.5H442.63ZM457.546 459.5V448.62H460.166V459.5H457.546ZM457.546 447.4V444.6H460.166V447.4H457.546ZM462.585 459.5V448.62H465.045V450.76L464.845 450.38C465.099 449.727 465.512 449.233 466.085 448.9C466.672 448.553 467.352 448.38 468.125 448.38C468.925 448.38 469.632 448.553 470.245 448.9C470.872 449.247 471.359 449.733 471.705 450.36C472.052 450.973 472.225 451.687 472.225 452.5V459.5H469.605V453.12C469.605 452.64 469.512 452.227 469.325 451.88C469.139 451.533 468.879 451.267 468.545 451.08C468.225 450.88 467.845 450.78 467.405 450.78C466.979 450.78 466.599 450.88 466.265 451.08C465.932 451.267 465.672 451.533 465.485 451.88C465.299 452.227 465.205 452.64 465.205 453.12V459.5H462.585ZM479.721 463.9C478.907 463.9 478.154 463.767 477.461 463.5C476.767 463.233 476.167 462.86 475.661 462.38C475.167 461.913 474.807 461.36 474.581 460.72L477.021 459.8C477.181 460.307 477.494 460.713 477.961 461.02C478.441 461.34 479.027 461.5 479.721 461.5C480.254 461.5 480.721 461.4 481.121 461.2C481.534 461 481.854 460.707 482.081 460.32C482.307 459.947 482.421 459.493 482.421 458.96V456.48L482.921 457.08C482.547 457.733 482.047 458.227 481.421 458.56C480.794 458.893 480.081 459.06 479.281 459.06C478.267 459.06 477.361 458.827 476.561 458.36C475.761 457.893 475.134 457.253 474.681 456.44C474.227 455.627 474.001 454.713 474.001 453.7C474.001 452.673 474.227 451.76 474.681 450.96C475.134 450.16 475.754 449.533 476.541 449.08C477.327 448.613 478.221 448.38 479.221 448.38C480.034 448.38 480.747 448.553 481.361 448.9C481.987 449.233 482.507 449.72 482.921 450.36L482.561 451.02V448.62H485.041V458.96C485.041 459.907 484.807 460.753 484.341 461.5C483.887 462.247 483.261 462.833 482.461 463.26C481.674 463.687 480.761 463.9 479.721 463.9ZM479.601 456.64C480.161 456.64 480.647 456.52 481.061 456.28C481.487 456.027 481.821 455.68 482.061 455.24C482.301 454.8 482.421 454.293 482.421 453.72C482.421 453.16 482.294 452.66 482.041 452.22C481.801 451.767 481.467 451.413 481.041 451.16C480.627 450.907 480.147 450.78 479.601 450.78C479.054 450.78 478.561 450.907 478.121 451.16C477.681 451.413 477.334 451.767 477.081 452.22C476.841 452.66 476.721 453.16 476.721 453.72C476.721 454.28 476.841 454.78 477.081 455.22C477.334 455.66 477.674 456.007 478.101 456.26C478.541 456.513 479.041 456.64 479.601 456.64ZM495.182 459.74C494.022 459.74 493.009 459.467 492.142 458.92C491.289 458.36 490.702 457.607 490.382 456.66L492.342 455.72C492.622 456.333 493.009 456.813 493.502 457.16C494.009 457.507 494.569 457.68 495.182 457.68C495.662 457.68 496.042 457.573 496.322 457.36C496.602 457.147 496.742 456.867 496.742 456.52C496.742 456.307 496.682 456.133 496.562 456C496.456 455.853 496.302 455.733 496.102 455.64C495.916 455.533 495.709 455.447 495.482 455.38L493.702 454.88C492.782 454.613 492.082 454.207 491.602 453.66C491.136 453.113 490.902 452.467 490.902 451.72C490.902 451.053 491.069 450.473 491.402 449.98C491.749 449.473 492.222 449.08 492.822 448.8C493.436 448.52 494.136 448.38 494.922 448.38C495.949 448.38 496.856 448.627 497.642 449.12C498.429 449.613 498.989 450.307 499.322 451.2L497.322 452.14C497.136 451.647 496.822 451.253 496.382 450.96C495.942 450.667 495.449 450.52 494.902 450.52C494.462 450.52 494.116 450.62 493.862 450.82C493.609 451.02 493.482 451.28 493.482 451.6C493.482 451.8 493.536 451.973 493.642 452.12C493.749 452.267 493.896 452.387 494.082 452.48C494.282 452.573 494.509 452.66 494.762 452.74L496.502 453.26C497.396 453.527 498.082 453.927 498.562 454.46C499.056 454.993 499.302 455.647 499.302 456.42C499.302 457.073 499.129 457.653 498.782 458.16C498.436 458.653 497.956 459.04 497.342 459.32C496.729 459.6 496.009 459.74 495.182 459.74ZM501.316 459.5V448.62H503.936V459.5H501.316ZM501.316 447.4V444.6H503.936V447.4H501.316ZM506.355 459.5V448.62H508.815V450.76L508.615 450.38C508.868 449.727 509.281 449.233 509.855 448.9C510.441 448.553 511.121 448.38 511.895 448.38C512.695 448.38 513.401 448.553 514.015 448.9C514.641 449.247 515.128 449.733 515.475 450.36C515.821 450.973 515.995 451.687 515.995 452.5V459.5H513.375V453.12C513.375 452.64 513.281 452.227 513.095 451.88C512.908 451.533 512.648 451.267 512.315 451.08C511.995 450.88 511.615 450.78 511.175 450.78C510.748 450.78 510.368 450.88 510.035 451.08C509.701 451.267 509.441 451.533 509.255 451.88C509.068 452.227 508.975 452.64 508.975 453.12V459.5H506.355ZM523.45 459.74C522.37 459.74 521.397 459.493 520.53 459C519.677 458.493 519.004 457.813 518.51 456.96C518.017 456.093 517.77 455.12 517.77 454.04C517.77 452.96 518.017 451.993 518.51 451.14C519.004 450.287 519.677 449.613 520.53 449.12C521.397 448.627 522.37 448.38 523.45 448.38C524.224 448.38 524.944 448.52 525.61 448.8C526.277 449.067 526.85 449.44 527.33 449.92C527.824 450.387 528.177 450.947 528.39 451.6L526.09 452.6C525.89 452.053 525.55 451.613 525.07 451.28C524.604 450.947 524.064 450.78 523.45 450.78C522.877 450.78 522.364 450.92 521.91 451.2C521.47 451.48 521.124 451.867 520.87 452.36C520.617 452.853 520.49 453.42 520.49 454.06C520.49 454.7 520.617 455.267 520.87 455.76C521.124 456.253 521.47 456.64 521.91 456.92C522.364 457.2 522.877 457.34 523.45 457.34C524.077 457.34 524.624 457.173 525.09 456.84C525.557 456.507 525.89 456.06 526.09 455.5L528.39 456.54C528.177 457.153 527.83 457.707 527.35 458.2C526.87 458.68 526.297 459.06 525.63 459.34C524.964 459.607 524.237 459.74 523.45 459.74ZM535.538 459.74C534.418 459.74 533.438 459.487 532.598 458.98C531.758 458.473 531.105 457.787 530.638 456.92C530.172 456.053 529.938 455.093 529.938 454.04C529.938 452.947 530.172 451.98 530.638 451.14C531.118 450.287 531.765 449.613 532.578 449.12C533.405 448.627 534.325 448.38 535.338 448.38C536.192 448.38 536.938 448.52 537.578 448.8C538.232 449.08 538.785 449.467 539.238 449.96C539.692 450.453 540.038 451.02 540.278 451.66C540.518 452.287 540.638 452.967 540.638 453.7C540.638 453.887 540.625 454.08 540.598 454.28C540.585 454.48 540.552 454.653 540.498 454.8H532.098V452.8H539.018L537.778 453.74C537.898 453.127 537.865 452.58 537.678 452.1C537.505 451.62 537.212 451.24 536.798 450.96C536.398 450.68 535.912 450.54 535.338 450.54C534.792 450.54 534.305 450.68 533.878 450.96C533.452 451.227 533.125 451.627 532.898 452.16C532.685 452.68 532.605 453.313 532.658 454.06C532.605 454.727 532.692 455.32 532.918 455.84C533.158 456.347 533.505 456.74 533.958 457.02C534.425 457.3 534.958 457.44 535.558 457.44C536.158 457.44 536.665 457.313 537.078 457.06C537.505 456.807 537.838 456.467 538.078 456.04L540.198 457.08C539.985 457.6 539.652 458.06 539.198 458.46C538.745 458.86 538.205 459.173 537.578 459.4C536.965 459.627 536.285 459.74 535.538 459.74ZM552.039 459.74C550.852 459.74 549.812 459.42 548.919 458.78C548.026 458.14 547.326 457.24 546.819 456.08C546.326 454.92 546.079 453.573 546.079 452.04C546.079 450.493 546.326 449.147 546.819 448C547.312 446.853 548.006 445.96 548.899 445.32C549.792 444.68 550.832 444.36 552.019 444.36C553.232 444.36 554.279 444.68 555.159 445.32C556.052 445.96 556.752 446.86 557.259 448.02C557.766 449.167 558.019 450.507 558.019 452.04C558.019 453.573 557.766 454.92 557.259 456.08C556.766 457.227 556.072 458.127 555.179 458.78C554.286 459.42 553.239 459.74 552.039 459.74ZM552.059 457.26C552.739 457.26 553.319 457.053 553.799 456.64C554.279 456.213 554.646 455.613 554.899 454.84C555.166 454.053 555.299 453.12 555.299 452.04C555.299 450.96 555.166 450.033 554.899 449.26C554.646 448.473 554.272 447.873 553.779 447.46C553.299 447.047 552.712 446.84 552.019 446.84C551.352 446.84 550.779 447.047 550.299 447.46C549.819 447.873 549.446 448.473 549.179 449.26C548.926 450.033 548.799 450.96 548.799 452.04C548.799 453.107 548.926 454.033 549.179 454.82C549.446 455.593 549.819 456.193 550.299 456.62C550.792 457.047 551.379 457.26 552.059 457.26ZM564.979 459.74C564.166 459.74 563.392 459.593 562.659 459.3C561.939 458.993 561.319 458.567 560.799 458.02C560.292 457.46 559.946 456.8 559.759 456.04L562.139 455.2C562.379 455.88 562.746 456.4 563.239 456.76C563.732 457.107 564.312 457.28 564.979 457.28C565.512 457.28 565.972 457.18 566.359 456.98C566.759 456.78 567.072 456.493 567.299 456.12C567.526 455.733 567.639 455.28 567.639 454.76C567.639 454.24 567.526 453.8 567.299 453.44C567.086 453.067 566.779 452.78 566.379 452.58C565.979 452.38 565.506 452.28 564.959 452.28C564.706 452.28 564.439 452.307 564.159 452.36C563.892 452.413 563.652 452.493 563.439 452.6L562.819 451.3L566.679 446.9H560.599V444.6H569.739V446.74L565.859 451.28L565.899 450.26C566.792 450.273 567.572 450.467 568.239 450.84C568.906 451.213 569.426 451.727 569.799 452.38C570.172 453.033 570.359 453.8 570.359 454.68C570.359 455.64 570.126 456.507 569.659 457.28C569.192 458.04 568.552 458.64 567.739 459.08C566.926 459.52 566.006 459.74 564.979 459.74ZM571.666 461.9L578.306 445.4H581.166L574.526 461.9H571.666ZM588.543 459.74C587.356 459.74 586.316 459.42 585.423 458.78C584.53 458.14 583.83 457.24 583.323 456.08C582.83 454.92 582.583 453.573 582.583 452.04C582.583 450.493 582.83 449.147 583.323 448C583.816 446.853 584.51 445.96 585.403 445.32C586.296 444.68 587.336 444.36 588.523 444.36C589.736 444.36 590.783 444.68 591.663 445.32C592.556 445.96 593.256 446.86 593.763 448.02C594.27 449.167 594.523 450.507 594.523 452.04C594.523 453.573 594.27 454.92 593.763 456.08C593.27 457.227 592.576 458.127 591.683 458.78C590.79 459.42 589.743 459.74 588.543 459.74ZM588.563 457.26C589.243 457.26 589.823 457.053 590.303 456.64C590.783 456.213 591.15 455.613 591.403 454.84C591.67 454.053 591.803 453.12 591.803 452.04C591.803 450.96 591.67 450.033 591.403 449.26C591.15 448.473 590.776 447.873 590.283 447.46C589.803 447.047 589.216 446.84 588.523 446.84C587.856 446.84 587.283 447.047 586.803 447.46C586.323 447.873 585.95 448.473 585.683 449.26C585.43 450.033 585.303 450.96 585.303 452.04C585.303 453.107 585.43 454.033 585.683 454.82C585.95 455.593 586.323 456.193 586.803 456.62C587.296 457.047 587.883 457.26 588.563 457.26ZM601.943 459.74C600.863 459.74 599.923 459.54 599.123 459.14C598.336 458.727 597.723 458.173 597.283 457.48C596.856 456.787 596.643 456.027 596.643 455.2C596.643 454.227 596.903 453.407 597.423 452.74C597.943 452.06 598.696 451.56 599.683 451.24L599.523 451.9C598.816 451.673 598.256 451.233 597.843 450.58C597.443 449.927 597.243 449.207 597.243 448.42C597.243 447.633 597.443 446.933 597.843 446.32C598.243 445.707 598.796 445.227 599.503 444.88C600.21 444.533 601.023 444.36 601.943 444.36C602.85 444.36 603.65 444.533 604.343 444.88C605.05 445.227 605.603 445.707 606.003 446.32C606.416 446.933 606.623 447.633 606.623 448.42C606.623 449.22 606.416 449.947 606.003 450.6C605.603 451.24 605.05 451.68 604.343 451.92L604.203 451.22C605.19 451.567 605.943 452.08 606.463 452.76C606.983 453.427 607.243 454.247 607.243 455.22C607.243 456.047 607.023 456.807 606.583 457.5C606.156 458.18 605.543 458.727 604.743 459.14C603.956 459.54 603.023 459.74 601.943 459.74ZM601.943 457.44C602.463 457.44 602.916 457.347 603.303 457.16C603.69 456.96 603.99 456.687 604.203 456.34C604.416 455.98 604.523 455.573 604.523 455.12C604.523 454.653 604.416 454.253 604.203 453.92C603.99 453.573 603.69 453.307 603.303 453.12C602.916 452.92 602.463 452.82 601.943 452.82C601.423 452.82 600.97 452.92 600.583 453.12C600.21 453.307 599.916 453.573 599.703 453.92C599.49 454.253 599.383 454.653 599.383 455.12C599.383 455.573 599.49 455.98 599.703 456.34C599.916 456.687 600.21 456.96 600.583 457.16C600.97 457.347 601.423 457.44 601.943 457.44ZM601.943 450.52C602.33 450.52 602.67 450.433 602.963 450.26C603.256 450.087 603.483 449.86 603.643 449.58C603.816 449.287 603.903 448.953 603.903 448.58C603.903 448.207 603.816 447.88 603.643 447.6C603.483 447.307 603.256 447.08 602.963 446.92C602.67 446.747 602.33 446.66 601.943 446.66C601.556 446.66 601.21 446.747 600.903 446.92C600.61 447.08 600.376 447.307 600.203 447.6C600.043 447.88 599.963 448.207 599.963 448.58C599.963 448.953 600.043 449.287 600.203 449.58C600.376 449.86 600.61 450.087 600.903 450.26C601.21 450.433 601.556 450.52 601.943 450.52ZM608.58 461.9L615.22 445.4H618.08L611.44 461.9H608.58ZM619.297 459.5V457.44L623.337 453.22C624.137 452.38 624.75 451.713 625.177 451.22C625.617 450.713 625.924 450.28 626.097 449.92C626.27 449.56 626.357 449.193 626.357 448.82C626.357 448.193 626.157 447.7 625.757 447.34C625.37 446.98 624.87 446.8 624.257 446.8C623.617 446.8 623.064 446.987 622.597 447.36C622.13 447.72 621.79 448.253 621.577 448.96L619.197 448.22C619.357 447.433 619.684 446.753 620.177 446.18C620.67 445.593 621.27 445.147 621.977 444.84C622.697 444.52 623.457 444.36 624.257 444.36C625.217 444.36 626.057 444.533 626.777 444.88C627.51 445.227 628.077 445.713 628.477 446.34C628.89 446.967 629.097 447.7 629.097 448.54C629.097 449.073 628.997 449.6 628.797 450.12C628.597 450.64 628.297 451.173 627.897 451.72C627.497 452.253 626.977 452.853 626.337 453.52L622.837 457.2H629.297V459.5H619.297ZM637.391 459.74C636.204 459.74 635.164 459.42 634.271 458.78C633.377 458.14 632.677 457.24 632.171 456.08C631.677 454.92 631.431 453.573 631.431 452.04C631.431 450.493 631.677 449.147 632.171 448C632.664 446.853 633.357 445.96 634.251 445.32C635.144 444.68 636.184 444.36 637.371 444.36C638.584 444.36 639.631 444.68 640.511 445.32C641.404 445.96 642.104 446.86 642.611 448.02C643.117 449.167 643.371 450.507 643.371 452.04C643.371 453.573 643.117 454.92 642.611 456.08C642.117 457.227 641.424 458.127 640.531 458.78C639.637 459.42 638.591 459.74 637.391 459.74ZM637.411 457.26C638.091 457.26 638.671 457.053 639.151 456.64C639.631 456.213 639.997 455.613 640.251 454.84C640.517 454.053 640.651 453.12 640.651 452.04C640.651 450.96 640.517 450.033 640.251 449.26C639.997 448.473 639.624 447.873 639.131 447.46C638.651 447.047 638.064 446.84 637.371 446.84C636.704 446.84 636.131 447.047 635.651 447.46C635.171 447.873 634.797 448.473 634.531 449.26C634.277 450.033 634.151 450.96 634.151 452.04C634.151 453.107 634.277 454.033 634.531 454.82C634.797 455.593 635.171 456.193 635.651 456.62C636.144 457.047 636.731 457.26 637.411 457.26ZM645.391 459.5V457.44L649.431 453.22C650.231 452.38 650.844 451.713 651.271 451.22C651.711 450.713 652.017 450.28 652.191 449.92C652.364 449.56 652.451 449.193 652.451 448.82C652.451 448.193 652.251 447.7 651.851 447.34C651.464 446.98 650.964 446.8 650.351 446.8C649.711 446.8 649.157 446.987 648.691 447.36C648.224 447.72 647.884 448.253 647.671 448.96L645.291 448.22C645.451 447.433 645.777 446.753 646.271 446.18C646.764 445.593 647.364 445.147 648.071 444.84C648.791 444.52 649.551 444.36 650.351 444.36C651.311 444.36 652.151 444.533 652.871 444.88C653.604 445.227 654.171 445.713 654.571 446.34C654.984 446.967 655.191 447.7 655.191 448.54C655.191 449.073 655.091 449.6 654.891 450.12C654.691 450.64 654.391 451.173 653.991 451.72C653.591 452.253 653.071 452.853 652.431 453.52L648.931 457.2H655.391V459.5H645.391ZM662.344 459.74C661.558 459.74 660.804 459.593 660.084 459.3C659.378 459.007 658.764 458.593 658.244 458.06C657.738 457.513 657.391 456.867 657.204 456.12L659.564 455.28C659.791 455.96 660.158 456.467 660.664 456.8C661.171 457.12 661.731 457.28 662.344 457.28C662.851 457.28 663.298 457.173 663.684 456.96C664.084 456.733 664.391 456.427 664.604 456.04C664.818 455.64 664.924 455.18 664.924 454.66C664.924 454.14 664.811 453.687 664.584 453.3C664.371 452.913 664.071 452.613 663.684 452.4C663.298 452.173 662.851 452.06 662.344 452.06C661.824 452.06 661.351 452.173 660.924 452.4C660.511 452.627 660.211 452.953 660.024 453.38L657.804 452.88L658.984 444.6H667.104V446.9H660.064L661.084 445.72L660.244 451.96L659.464 451.32C659.838 450.773 660.291 450.373 660.824 450.12C661.371 449.867 662.031 449.74 662.804 449.74C663.791 449.74 664.644 449.953 665.364 450.38C666.098 450.807 666.664 451.387 667.064 452.12C667.464 452.853 667.664 453.7 667.664 454.66C667.664 455.62 667.431 456.487 666.964 457.26C666.498 458.033 665.864 458.64 665.064 459.08C664.264 459.52 663.358 459.74 662.344 459.74Z" fill="#F5F1E9"/>
</g>
<rect x="0.833333" y="1.33333" width="690.333" height="478.333" rx="12.5" stroke="#D6D6D6" stroke-width="1.66667"/>
<defs>
<linearGradient id="paint0_linear_1821_4040" x1="345.501" y1="-16.5" x2="346.502" y2="480.5" gradientUnits="userSpaceOnUse">
<stop stop-color="#F9F9FB"/>
<stop offset="1" stop-color="#00DDFF" stop-opacity="0.41"/>
</linearGradient>
<radialGradient id="paint1_radial_1821_4040" cx="0" cy="0" r="1" gradientUnits="userSpaceOnUse" gradientTransform="translate(346 240.5) rotate(90) scale(240 346)">
<stop offset="0.535" stop-color="#FFF38C"/>
<stop offset="1" stop-color="white" stop-opacity="0"/>
</radialGradient>
<clipPath id="clip0_1821_4040">
<rect y="0.5" width="692" height="480" rx="13.3333" fill="white"/>
</clipPath>
<clipPath id="clip1_1821_4040">
<rect width="70.4444" height="70.4556" fill="white" transform="matrix(0.649055 -0.760742 0.761389 0.648295 290.5 144.823)"/>
</clipPath>
<clipPath id="clip2_1821_4040">
<rect width="70.4444" height="70.4556" fill="white" transform="matrix(0.649055 -0.760742 0.761389 0.648295 290.003 71.0898)"/>
</clipPath>
<clipPath id="clip3_1821_4040">
<rect width="70.415" height="70.485" fill="white" transform="matrix(-0.425087 -0.905152 0.905075 -0.425251 176.812 248.084)"/>
</clipPath>
</defs>
</svg>
