<svg width="140" height="128" viewBox="0 0 140 128" fill="none" xmlns="http://www.w3.org/2000/svg">
<g clip-path="url(#clip0_1936_5272)">
<path d="M70.4511 119.464C63.968 119.537 54.1459 122.537 51.0749 124C52.4154 121.439 57.1437 112.939 57.1437 101.468C57.9967 95.5664 56.5295 81.3058 43.8363 71.4736C37.4994 66.1576 25.5568 58.6713 23.5095 58.0128C22.1203 57.4276 20.824 55.4697 24.8256 47.6978C26.3367 45.3812 30.017 41.2308 32.6492 43.1621C39.705 46.4785 53.8167 53.7259 53.8167 56.1839C55.1258 45.3099 64.1313 41.7752 68.9888 41.4064C82.5594 41.4064 85.9521 49.99 85.9521 54.2819C88.4625 50.3802 96.1447 41.0991 106.791 35.1881C107.503 34.8958 108.578 34.6644 109.789 34.7445C111.811 34.8783 114.211 35.8808 115.93 38.919C117.341 41.2942 119.518 46.0989 117.91 47.771C117.768 47.9186 117.597 48.0418 117.393 48.1367C105.548 54.7696 81.8575 73.4927 81.8575 95.3226C82.0281 104.248 83.6123 118.221 89.9736 121.586C88.1456 121.391 86.2446 119.757 70.4511 119.464Z" fill="#663C16"/>
<ellipse cx="70.0125" cy="56.9157" rx="15.6472" ry="15.8018" fill="#E7C59A"/>
<ellipse cx="3.43711" cy="8.16753" rx="3.43711" ry="8.16753" transform="matrix(-0.825631 -0.564211 -0.563805 0.825908 34.8857 45.4919)" fill="#E7C59A"/>
<path d="M82.7519 34.2935C92.0898 38.0089 97.7818 30.0898 94.8476 17.4657C81.9525 18.6997 76.2607 26.6188 82.7519 34.2935C82.7521 34.2937 82.7518 34.2934 82.7519 34.2935Z" fill="#5D8664"/>
<path d="M82.7519 34.2935C92.0898 38.0089 97.7818 30.0898 94.8476 17.4657C81.9525 18.6997 76.2607 26.6188 82.7519 34.2935ZM82.7519 34.2935C82.7518 34.2934 82.7521 34.2937 82.7519 34.2935ZM82.7519 34.2935L80.9113 36.8533M82.7519 34.2935L86.6034 28.9343" stroke="#0D0D0D" stroke-width="2.94715" stroke-linecap="round" stroke-linejoin="round"/>
<path d="M52.4472 37.7977C58.3725 29.677 52.1277 22.1867 39.1772 21.8805C37.1548 34.6824 43.3998 42.1725 52.4472 37.7977C52.4474 37.7976 52.447 37.7977 52.4472 37.7977Z" fill="#5D8664"/>
<path d="M52.4472 37.7977C58.3725 29.677 52.1277 22.1867 39.1772 21.8805C37.1548 34.6824 43.3998 42.1725 52.4472 37.7977ZM52.4472 37.7977C52.447 37.7977 52.4474 37.7976 52.4472 37.7977ZM52.4472 37.7977L54.4656 40.2196M52.4472 37.7977L48.2208 32.7291" stroke="#0D0D0D" stroke-width="2.94715" stroke-linecap="round" stroke-linejoin="round"/>
<g clip-path="url(#clip1_1936_5272)">
<path d="M68.0012 29.332C77.5257 26.126 76.7509 16.4026 66.3549 8.66991C57.3147 17.9528 58.0898 27.6761 68.0012 29.332C68.0014 29.332 68.001 29.332 68.0012 29.332Z" fill="#5D8664"/>
<path d="M68.0012 29.332C77.5257 26.126 76.7509 16.4026 66.3549 8.66991C57.3147 17.9528 58.0898 27.6761 68.0012 29.332ZM68.0012 29.332C68.001 29.332 68.0014 29.332 68.0012 29.332ZM68.0012 29.332L68.2511 32.4754M68.0012 29.332L67.4763 22.7521" stroke="#0D0D0D" stroke-width="2.94715" stroke-linecap="round" stroke-linejoin="round"/>
</g>
<ellipse cx="3.43711" cy="6.87555" rx="3.43711" ry="6.87555" transform="matrix(0.825631 -0.564211 0.563805 0.825908 106.571 37.384)" fill="#E7C59A"/>
<path d="M51.0749 124L49.7694 123.316C49.4753 123.878 49.5736 124.565 50.0135 125.022C50.4534 125.479 51.1362 125.603 51.7087 125.33L51.0749 124ZM70.4511 119.464L70.4784 117.991L70.4565 117.99L70.4345 117.991L70.4511 119.464ZM89.9736 121.586L89.8176 123.051C90.52 123.126 91.1767 122.692 91.3829 122.016C91.5892 121.34 91.287 120.613 90.6627 120.283L89.9736 121.586ZM81.8575 95.3226H80.3839V95.3367L80.3842 95.3507L81.8575 95.3226ZM117.393 48.1367L116.771 46.8007L116.721 46.824L116.673 46.851L117.393 48.1367ZM115.93 38.919L114.648 39.6449L114.656 39.6583L114.664 39.6716L115.93 38.919ZM106.791 35.1881L106.231 33.8249L106.151 33.8577L106.075 33.8998L106.791 35.1881ZM71.8404 73.083L72.0158 74.5462L72.0598 74.5409L72.1034 74.533L71.8404 73.083ZM53.7072 60.5733L52.2363 60.6633L52.2406 60.7331L52.2515 60.8023L53.7072 60.5733ZM68.9888 41.4064V39.9328H68.9329L68.8772 39.937L68.9888 41.4064ZM24.8256 47.6978L23.5914 46.8927L23.5501 46.956L23.5155 47.0232L24.8256 47.6978ZM24.8988 57.8665L25.2186 59.305L25.3817 59.2687L25.5326 59.1968L24.8988 57.8665ZM31.0406 50.1851L29.7722 49.4352L29.7359 49.4965L29.7057 49.5611L31.0406 50.1851ZM23.5095 58.0128L22.9374 59.3708L22.9969 59.3959L23.0584 59.4157L23.5095 58.0128ZM43.8363 71.4736L42.8892 72.6025L42.9112 72.621L42.9339 72.6386L43.8363 71.4736ZM57.1437 101.468L55.6853 101.257L55.6701 101.362V101.468H57.1437ZM109.789 34.7445L109.886 33.2742L109.789 34.7445ZM111.69 43.9668L110.582 44.9385L110.59 44.9473L110.597 44.9561L111.69 43.9668ZM117.91 47.771L118.972 48.7922L117.91 47.771ZM51.7087 125.33C53.1206 124.658 56.24 123.57 59.8517 122.638C63.4601 121.706 67.4023 120.972 70.4678 120.938L70.4345 117.991C67.0169 118.029 62.8064 118.831 59.1152 119.784C55.4273 120.736 52.1002 121.879 50.4411 122.67L51.7087 125.33ZM70.4238 120.938C78.2766 121.083 82.6182 121.561 85.195 122.013C86.4762 122.238 87.3327 122.458 87.9869 122.635C88.5961 122.801 89.211 122.986 89.8176 123.051L90.1296 120.12C89.8222 120.088 89.514 119.996 88.759 119.791C88.0491 119.598 87.1006 119.355 85.7039 119.11C82.9247 118.623 78.4191 118.138 70.4784 117.991L70.4238 120.938ZM90.6627 120.283C89.4208 119.626 88.3075 118.392 87.3403 116.613C86.3773 114.843 85.6153 112.636 85.0266 110.194C83.8491 105.31 83.4151 99.7035 83.3308 95.2944L80.3842 95.3507C80.4705 99.8667 80.9139 105.709 82.1615 110.884C82.7853 113.472 83.6228 115.947 84.7513 118.022C85.8755 120.089 87.3457 121.863 89.2845 122.888L90.6627 120.283ZM83.3311 95.3226C83.3311 84.9352 88.9812 75.1374 96.2793 67.0157C103.558 58.9152 112.309 52.6726 118.113 49.4225L116.673 46.851C110.632 50.2337 101.614 56.6691 94.0872 65.0459C86.5789 73.4014 80.3839 83.8802 80.3839 95.3226H83.3311ZM106.075 33.8998C95.1672 39.9564 87.3201 49.4324 84.7129 53.4845L87.1913 55.0792C89.6049 51.328 97.1223 42.2418 107.506 36.4764L106.075 33.8998ZM84.4785 54.2819C84.4785 66.3564 75.8043 70.8662 71.5773 71.6331L72.1034 74.533C77.2843 73.5929 87.4257 68.1924 87.4257 54.2819H84.4785ZM71.665 71.6199C65.7398 72.3302 61.8367 70.537 59.3135 68.1334C56.7347 65.6767 55.4993 62.4837 55.1628 60.3444L52.2515 60.8023C52.6706 63.4668 54.1551 67.2896 57.2807 70.2672C60.462 73.2978 65.2477 75.3575 72.0158 74.5462L71.665 71.6199ZM68.9888 42.8799C75.4423 42.8799 79.2703 44.9085 81.4903 47.2488C83.7475 49.6282 84.4785 52.4711 84.4785 54.2819H87.4257C87.4257 51.8008 86.4604 48.2059 83.6285 45.2205C80.7595 42.196 76.1059 39.9328 68.9888 39.9328V42.8799ZM55.178 60.4833C55.0863 58.9847 55.1288 57.6135 55.2797 56.3601L52.3537 56.0078C52.1801 57.4498 52.1345 58.9996 52.2363 60.6633L55.178 60.4833ZM55.2797 56.3601C56.4722 46.4541 64.6325 43.215 69.1003 42.8757L68.8772 39.937C63.6301 40.3354 53.7793 44.1657 52.3537 56.0078L55.2797 56.3601ZM55.2902 56.1839C55.2902 55.6882 55.1173 55.2639 54.9442 54.9528C54.7659 54.632 54.5326 54.3339 54.2872 54.0638C53.7973 53.5246 53.1349 52.9628 52.3867 52.4006C50.8812 51.2694 48.8355 49.9941 46.613 48.7172C42.1563 46.1567 36.8256 43.4969 33.2761 41.8285L32.0224 44.4957C35.5286 46.1437 40.7817 48.7658 45.1448 51.2726C47.3322 52.5294 49.2553 53.7341 50.6163 54.7567C51.3013 55.2714 51.7965 55.705 52.1059 56.0456C52.2602 56.2154 52.3369 56.3282 52.3687 56.3853C52.4058 56.452 52.3431 56.3724 52.3431 56.1839H55.2902ZM33.5209 41.974C31.343 40.376 28.9501 41.5125 27.429 42.661C25.808 43.8849 24.4013 45.6512 23.5914 46.8927L26.0598 48.5029C26.7611 47.4278 27.95 45.9605 29.2049 45.013C30.5599 43.9899 31.3232 44.0169 31.7775 44.3502L33.5209 41.974ZM25.5326 59.1968C26.1386 58.9081 26.7656 58.3882 27.3303 57.8436C27.9227 57.2723 28.5517 56.57 29.1637 55.8089C30.3802 54.2962 31.6046 52.4582 32.3755 50.8092L29.7057 49.5611C29.063 50.9358 27.9843 52.5727 26.8671 53.9619C26.3123 54.6518 25.7668 55.2571 25.2845 55.7222C24.7746 56.2139 24.4266 56.4592 24.2649 56.5362L25.5326 59.1968ZM32.3091 50.9351C33.6084 48.7375 34.2204 46.9463 34.4094 45.5404C34.5888 44.2063 34.4084 43.0026 33.8001 42.2419L31.4983 44.0823C31.3775 43.9313 31.6212 44.1614 31.4886 45.1476C31.3656 46.062 30.9297 47.4774 29.7722 49.4352L32.3091 50.9351ZM23.5155 47.0232C21.49 50.9572 20.6755 53.6495 20.6724 55.548C20.6709 56.5316 20.8868 57.3742 21.3347 58.0561C21.7856 58.7426 22.3882 59.1395 22.9374 59.3708L24.0816 56.6549C23.9362 56.5936 23.8559 56.5263 23.798 56.4382C23.7372 56.3455 23.6187 56.1032 23.6196 55.5527C23.6215 54.3829 24.1596 52.2104 26.1357 48.3724L23.5155 47.0232ZM23.5095 59.4864C23.9247 59.4864 24.411 59.4845 25.2186 59.305L24.5789 56.4281C24.309 56.4881 24.1191 56.5138 23.972 56.5261C23.8208 56.5387 23.6939 56.5393 23.5095 56.5393V59.4864ZM23.0584 59.4157C23.3872 59.5214 24.3706 60.0192 25.9165 60.9196C27.3979 61.7825 29.26 62.9331 31.262 64.2326C35.276 66.8383 39.7882 70.0011 42.8892 72.6025L44.7833 70.3447C41.5474 67.6301 36.9199 64.3917 32.8666 61.7606C30.8349 60.4418 28.9315 59.2651 27.3998 58.373C25.9326 57.5184 24.6555 56.8335 23.9607 56.61L23.0584 59.4157ZM42.9339 72.6386C55.1023 82.0643 56.4836 95.7343 55.6853 101.257L58.6021 101.679C59.5099 95.3985 57.9567 80.5474 44.7386 70.3087L42.9339 72.6386ZM55.6701 101.468C55.6701 112.547 51.104 120.767 49.7694 123.316L52.3804 124.683C53.7268 122.112 58.6173 113.33 58.6173 101.468H55.6701ZM117.213 38.1932C115.231 34.6923 112.367 33.4383 109.886 33.2742L109.691 36.2149C111.254 36.3183 113.19 37.0693 114.648 39.6449L117.213 38.1932ZM109.886 33.2742C108.446 33.1789 107.146 33.4492 106.231 33.8249L107.35 36.5513C107.859 36.3424 108.71 36.15 109.691 36.2149L109.886 33.2742ZM109.164 33.4099C107.875 34.0132 107.109 35.0268 106.865 36.2551C106.64 37.386 106.883 38.5594 107.251 39.5769C107.991 41.6215 109.474 43.676 110.582 44.9385L112.797 42.9952C111.809 41.8679 110.587 40.1325 110.023 38.574C109.739 37.7899 109.68 37.2084 109.755 36.8296C109.811 36.5482 109.948 36.2971 110.413 36.0792L109.164 33.4099ZM118.014 49.4727C118.378 49.3035 118.7 49.0753 118.972 48.7922L116.848 46.7497C116.841 46.757 116.833 46.7643 116.822 46.772C116.811 46.7797 116.795 46.7897 116.771 46.8007L118.014 49.4727ZM118.972 48.7922C119.747 47.9864 119.951 46.9266 119.951 46.0164C119.951 45.0907 119.743 44.1034 119.462 43.1796C118.897 41.3247 117.941 39.419 117.197 38.1665L114.664 39.6716C115.33 40.7942 116.168 42.4785 116.642 44.0377C116.881 44.821 117.004 45.4969 117.004 46.0165C117.004 46.5517 116.877 46.7195 116.848 46.7497L118.972 48.7922ZM110.597 44.9561C112.375 46.9184 113.908 48.0781 115.171 48.7037C115.803 49.017 116.392 49.2082 116.927 49.2852C117.437 49.3587 118.002 49.3423 118.508 49.118L117.313 46.4239C117.489 46.3459 117.535 46.3953 117.347 46.3682C117.184 46.3447 116.895 46.2689 116.479 46.0628C115.645 45.6496 114.397 44.7608 112.782 42.9776L110.597 44.9561Z" fill="black"/>
<path d="M76.4473 61.5977C76.7397 60.354 78.0559 60.1388 78.8883 60.1388C80.4924 60.1388 80.8343 60.8661 81.0537 61.3051" stroke="black" stroke-width="1.84197" stroke-linecap="round"/>
<path d="M59.6299 62.9102C59.9224 61.6665 61.2385 61.4513 62.0709 61.4513C63.675 61.4513 64.017 62.1786 64.2363 62.6176" stroke="black" stroke-width="1.84197" stroke-linecap="round"/>
<path d="M67.9649 62.8952C68.2315 64.5172 69.8351 64.563 70.6035 64.3831C72.1353 64.1311 72.4028 63.0192 72.3451 62.4948" stroke="black" stroke-width="1.84197" stroke-linecap="round"/>
</g>
<defs>
<clipPath id="clip0_1936_5272">
<rect width="140" height="128" fill="white"/>
</clipPath>
<clipPath id="clip1_1936_5272">
<rect width="29.2561" height="29.2536" fill="white" transform="matrix(0.648477 -0.761234 0.760897 0.648873 46.7612 22.1597)"/>
</clipPath>
</defs>
</svg>
