<svg width="40" height="41" viewBox="0 0 40 41" fill="none" xmlns="http://www.w3.org/2000/svg">
<path d="M6.66724 13.833H33.3339M6.66724 13.833V28.5C6.66724 30.3668 6.66724 31.2998 7.03055 32.0128C7.35013 32.64 7.85969 33.1505 8.4869 33.47C9.19924 33.833 10.1322 33.833 11.9954 33.833H28.0057C29.8689 33.833 30.8005 33.833 31.5129 33.47C32.1401 33.1505 32.6514 32.64 32.9709 32.0128C33.3339 31.3005 33.3339 30.3688 33.3339 28.5056V13.833M6.66724 13.833V12.5C6.66724 10.6332 6.66724 9.69904 7.03055 8.986C7.35013 8.3588 7.85969 7.84923 8.4869 7.52965C9.19994 7.16634 10.1341 7.16634 12.0009 7.16634H13.3339M33.3339 13.833V12.4945C33.3339 10.6313 33.3339 9.69834 32.9709 8.986C32.6514 8.3588 32.1401 7.84923 31.5129 7.52965C30.7999 7.16634 29.8677 7.16634 28.0009 7.16634H26.6672M26.6672 3.83301V7.16634M26.6672 7.16634H13.3339M13.3339 3.83301V7.16634" stroke="#0D0D0D" stroke-width="3.66667" stroke-linecap="round" stroke-linejoin="round"/>
</svg>
